<?xml version="1.0" encoding="UTF-8"?>
<!-- Created with Inkscape (http://www.inkscape.org/) -->
<svg width="138.74cm" height="95.937cm" version="1.1" viewBox="0 0 1387.4 959.37" xmlns="http://www.w3.org/2000/svg" xmlns:cc="http://creativecommons.org/ns#" xmlns:dc="http://purl.org/dc/elements/1.1/" xmlns:rdf="http://www.w3.org/1999/02/22-rdf-syntax-ns#">
 <metadata>
  <rdf:RDF>
   <cc:Work rdf:about="">
    <dc:format>image/svg+xml</dc:format>
    <dc:type rdf:resource="http://purl.org/dc/dcmitype/StillImage"/>
    <dc:title/>
   </cc:Work>
  </rdf:RDF>
 </metadata>
 <g transform="translate(4.4151 -.29982)">
  <rect x="-2.7851" y="1.9298" width="1384.1" height="956.11" fill="#50565c" stroke="#50565c" stroke-linecap="round" stroke-linejoin="round" stroke-width="3.26" style="paint-order:normal"/>
 </g>
 <g transform="translate(4.4151 -.29982)">
  <path d="m507.93 852.77 1.2185-14.622v-6.7886l-2.9592-6.9627-5.5702-3.8295-8.3553 1.7407-7.1368 4.3517-4.8739 3.3073-8.8774-4.3517-6.6146-9.2256-12.707-10.618-8.3552-8.7034-22.977-8.7034-13.055-5.048-13.403-4.8739-12.881-3.1332-2.7746 10.398h-14.77l-4.1849 10.093-16.74 3.9387-10.585-6.6466-6.8927 1.9694-1.477 8.8621 0.73851 11.324-7.1389 9.8468-11.57 5.9081-3.6926 6.6466-8.3698 4.4311-6.6466 11.816-5.4157 5.1695-9.6006-10.339-3.6925-8.1236-7.6312-6.6466-15.509 4.9234-3.2002-3.6925-20.432-2.954-17.232 3.4464-12.062 0.49233-11.816-2.2155-4.9234-5.9081-8.6159-5.4157-9.1083-1.7232-0.24616-11.324-3.4464-10.339-6.6466-13.293 2.954-15.755 1.9694-9.3544 1.9694-11.078-6.1542-9.3544-25.602-6.4004-5.1696-10.339-8.6159-9.8468-13.785-6.1542-7.8774-10.339-10.585-10.093-8.1236-8.8621-4.6772-7.1389-11.078-1.477-10.831-11.816-11.078-10.093-5.6619-6.1542-4.431-3.6926-21.171-5.1695c-0.17-6.7371 0.19664-13.459 0.49234-20.186l7.8774-6.8927 10.093 3.2002 11.078-0.24617 14.524 4.6772 16.986 0.73851 12.801 15.509 4.431 5.6619 15.755 3.9387 9.1083 0.24617 10.093-4.6772 6.6466-3.6926 2.7079-10.585 6.1542-5.6619 6.8927-8.3698 3.4464-6.6466 14.524 3.6925 7.6312-5.9081 11.816-11.324 3.6925-12.555 7.1389-13.047-4.6772-10.339s2.2155-8.1236 1.9694-9.6006-6.4004-11.324-6.4004-11.324-0.24617-10.093-0.24617-11.57c0-1.477 0.98468-13.047 0.98468-13.047l11.324-10.339 12.308-1.477 4.0618-14.647-1.6001-11.324-0.61542-11.078 0.7385-7.3851-0.49233-13.539 0.98467-2.4617 15.016-3.8156 9.7237-0.73851 4.431-4.6772 5.5388-2.0925 5.785-3.5694 9.9699 2.4617 4.8003 2.7078 9.4252-2.6434 7.4849-2.9592 9.5737-9.7478 2.437-10.27 2.437-17.059 8.3552-16.536 6.0924-12.707 8.7034-7.1368 14.274-9.9219 8.0071 0.69625 5.3961 6.4405 9.0516 4.1776 10.792 1.9148 9.9219-2.2629 7.3109-9.0515 9.0515 1.0444 12.011 1.7407 3.4814 6.4405 2.611 7.3109 8.0071 8.5293 5.3961 3.4814 10.618 1.5666-2.0888 10.792-0.34814 16.362 9.3997 7.3109 8.1812-1.3926 11.837 1.0444 5.3961 0.52219v-5.3961l2.9592 0.87034 2.2629 4.0036 3.8295 7.833 4.0036 0.87034 3.6554-2.7851 3.3073-3.3073 9.7478 0.52221 2.2629 4.0035 8.5293 3.8295 4.1776 2.7851 9.9219 4.1776 6.7886 0.17407 5.2221-5.222 1.0444-6.4405 8.8775 4.5258 4.5258 2.437 7.3109-0.87035 18.799 1.3925 8.5293-3.8295 5.9183-10.444 1.9148-5.5702 5.5702-0.34811 5.9183 4.1776 4.1776 4.5258 5.222-0.34814 7.659-6.7886 8.5293-8.5293 0.69627-10.096 10.966-4.1776 9.7478-5.3961 9.2256-2.0888 10.096-3.8295 10.27 0.69627 10.096 2.9592 10.27 2.9592 6.0924-3.1332-4.6998-7.4849s-0.34814-6.4405 0-7.1368 2.7851-9.3997 2.7851-9.3997l-1.2185-11.14 1.2185-12.185 4.8739-2.2629 10.096 2.7851 20.366 5.222 14.448-1.5666 7.659-6.9627 8.5294-3.6554-0.52221-6.6146-5.9183-10.096-2.0888-8.7034 4.3517-11.14v-10.618l-5.5702-7.8331s-8.1812-6.2664-7.8331-7.3108c0.34813-1.0444 6.2664-13.925 6.2664-13.925l-5.7442-12.011-9.0516-9.9219s0.87035-14.1 0.52221-14.97-4.5258-11.488-4.5258-11.488l2.2629-9.5737 5.222-16.188 11.314-5.7442 6.7886-9.7478 1.7407-15.666s-2.7851-10.096-2.9592-10.792-12.359-10.966-12.359-10.966l-16.885-4.1776-6.0924 1.9147-5.3961-12.011-5.5267-7.572-0.82682-1.3055 0.30461-2.3499 2.0018-0.65275-1.2185-2.3499s-0.0435-2.0018-0.087-2.1759c-0.0435-0.17407 0.21759-2.7416 0.21759-2.7416l3.7424 0.60924 1.5231 2.6545 6.2229 0.17407 4.2212-1.3055 6.8322-0.91386 8.5293 1.5666 3.1332 5.5702 6.6146 4.5258 8.3552-2.7851 5.7443 0.87034 10.096 4.8739 3.1332 5.222 5.3961 12.533 2.2629 7.4849 0.69628 8.7034 3.8295 7.3108-2.611 9.5737s-4.0036 7.8331-4.5258 9.0515c-0.52221 1.2185-3.6554 7.1368-3.6554 7.1368l-6.9627 6.4405-3.4814 15.492-2.2629 12.881 4.8739 10.27 6.6146 6.0924 1.2185 7.659-3.3073 8.8775-3.1332 6.0924-0.52221 8.1812 2.0888 9.0515 6.7886 5.7442 5.048-5.3961 2.7851 5.048-3.3073 2.7851-3.1332 5.048 3.3073 6.4405-4.3517 8.1812-0.17404 4.3517-1.7407 6.6146 0.69628 7.4849 0.52221 6.9627-0.34814 7.4849 1.9147 6.2664 1.5666 4.8739-2.611 5.5702-3.4814 6.0924-5.048 1.9148 4.6998 6.7887 9.8021 5.7358-2.954-11.078 5.1696-11.816 3.2002-10.339 0.98467-13.785 7.1389-14.524 14.77-8.6159 11.57-10.339 23.386-4.1849 0.73851 7.6313s17.478 2.7078 18.955 2.7078c1.477 0 9.1082 6.1542 9.1082 6.1542l-4.431 6.1542 8.8621 4.1849 1.9698 14.515-5.9183 13.577-17.407 8.7034-18.103 11.14-19.147 4.1776-14.622-8.0071-10.096-6.2664-3.4814 16.014-4.1776 9.0515-10.444 0.34814-8.0071-0.69625-9.7478 4.1776-4.1776 11.14 1.7407 11.488s3.8295 5.5702 5.5702 6.2665c1.7407 0.69626 6.9627 2.437 6.9627 2.437l-2.7851 8.0071-10.792-4.5258 2.0888 11.837 0.34813 12.533 12.881 7.3109 27.155 14.622 10.096 13.925 14.97 4.5258 12.881 1.7407 9.3997 4.1776 14.622 10.096 10.096 14.274 18.799 8.0071 9.3997-21.236s15.666-8.0071 15.666-9.7478c0-1.7407-1.7407-18.451-1.7407-18.451l-22.629-10.096-12.533-9.3997-15.318 0.34814-13.577 4.1776-11.14-9.3997-14.274-10.444 2.0888-21.236 9.7478-9.7478 13.229-10.096 11.488 1.7407 16.362 6.6146 9.0516 10.792 11.14 9.3997 9.7478 3.8295-0.34814-18.103 12.533-8.0071 7.833-12.359 12.359 1.5666 16.014-5.5702 10.792-6.9627 15.666-4.8739 18.451-5.5702 23.76-11.663 9.6608-0.34814-4.1777 14.709 9.5901 8.8016 9.6006 7.3851 9.8468 2.2155 20.924-9.1083 13.539-2.2155 9.2592-2.9878 4.874-8.0071 11.662-3.8295 16.014-0.69625 14.622 1.0444 2.611 11.14 6.4405 6.6146 10.792 3.4814-2.611 5.3961-2.437 5.048 13.055 4.5258 15.144 3.4814 12.533-4.8739 12.707 3.4814 8.8775 3.8295 6.6146 2.2629 6.9627 3.4814 10.618-1.3926 11.314-7.4849 5.9183-2.4369 9.3996 5.3961s0.3482 6.9627-1.2184 7.3108c-1.5667 0.34813-9.9219 3.4814-9.9219 3.4814l-8.3553 3.6554-5.3961 7.3109-4.3517 7.8331-11.314 3.1332-7.3109 6.2664-4.0035 1.9147-7.659 3.3073-3.3073 5.7442-4.6998 1.0444-6.0924 4.6998-25.762 0.52221-8.7034 6.2664-10.792 8.5293-1.9147 8.1812-1.3926 8.1812-10.792 2.9592-9.5737 2.9592-7.485 6.7887-7.3108-1.0444-18.451-9.9219-12.881-1.3926-5.5701 1.2185-10.27-11.14-15.318-12.707-7.1368 9.9219-7.4849 2.4369-19.844-4.8739-11.314-8.1812-10.966-9.7478s-1.5666 7.659-2.7851 8.1812c-1.2184 0.52218-8.0071 6.0924-8.0071 6.0924l-12.533 0.69625 1.2185 14.274 1.5666 10.792s1.2185 13.751 1.2185 14.622c0 0.87035-0.69627 16.188-0.69627 16.188l-5.7672 26.573-1.7847 2.1232-2.8925-2.4309 2.154-7.2312 2.7386-12.185-1.6001-4.431-3.9387-16.555-0.49234-12.308-1.9694-15.509-8.3698-6.4004-12.308 8.1236 5.6619 9.3544 10.831-0.49234 0.24616 8.6159-4.6772 7.8774-12.062-1.477-9.1083 9.1082 4.4311 11.324 4.6772 13.293 2.7078 10.831-3.6926 15.016-3.2002 10.093 1.9693 7.8774-4.6772 8.8621-7.6312 8.8621-9.8468 4.431-6.1542-9.1083-14.278-11.816-0.24617-8.616 4.6772-14.524-11.078 5.9081-1.7232 9.6006 3.2002 11.324-6.8927 3.9387-0.24617 10.093 2.4617 8.8621-7.6312 2.7078-4.9702-23.785-11.154 4.5839-4.0618 3.0771-3.9387-5.5388-4.1849-4.308-6.0312 3.5695-4.9234 4.1849-4.8003 0.98467-6.6466-0.24617-4.4311-3.3233-3.3233-5.2926 0.7385-21.417-2.7079-5.2926-0.75965 6.781 1.1314 5.2221-0.95737 9.8348-1.2185 5.8313 4.0906 6.9627-3.7424 6.1794-4.5258 7.4849-18.277 14.709-11.576 8.5294-8.6164 7.3979-4.2647 4.7869-3.3943 10.183 2.0888 8.4423 0.1716 19.879 1.7232 11.324-3.4464 9.1082-0.49234 12.801-12.308 6.8927-8.3698 14.032-14.18 20.222-9.0516 11.837-11.488 5.3961h-14.1l-13.925 10.792-18.277-6.4405-4.5258-10.966-1.0444-12.011-0.52221-9.5737 8.8775-8.5293 7.659-3.6554 9.2256 2.2629 9.0515 9.0515 7.1368 6.2664 13.925-0.17407 10.444-7.1368 5.5702-11.837 10.444-11.314 4.6998-7.4849-13.403-7.1368-9.5737 4.6998-16.362 6.6146-2.0888 3.4814 14.1-4.1776 9.3997-4.0035 9.3997 2.2629-7.8331 7.1368-6.9627 7.659-4.8739 10.27-12.185 3.6554-9.5737-3.1332-1.7407-9.9219-4.8739-10.792-5.048-9.2256-4.3517-14.796 3.6554-14.448 4.6998-18.451-6.9627-5.5702-12.881 7.659-8.3553 14.622-3.3073 14.448 6.4405 9.7478s6.9627 2.7851 7.3109 4.1776c0.34814 1.3926 0.17407 10.444 0.17407 10.444l-12.533 1.3926-4.0036 5.222-7.4849-3.4814-10.27-2.437-9.9219 12.707-4.3517 14.97 3.3073 12.359 15.144 13.229 9.7478 8.0071-2.0888 16.536 3.1332 16.014 0.87035 14.448-7.659 14.1-16.885 3.1332-20.714 2.4369-15.144-7.659-18.625 0.34814-6.0924 0.34814-17.407 2.2629-11.663 5.048-14.099-1.5666-9.9219 10.792-4.6998 14.1z" fill="#35331e" stroke="#35331e" stroke-width=".26458px"/>
 </g>
 <g transform="translate(4.4151 -.29982)" fill="#676f76" stroke="#50565c">
  <g stroke-linecap="round" stroke-linejoin="round" stroke-width=".5">
   <g>
    <path d="m383.78 519.36-1.2308 7.3851-4.9234 4.1849-3.9387 6.1542-1.7232 8.616-3.6925 8.1236 2.7078 6.4004 6.4004 5.1696 6.4004 0.73851 2.2155 13.293 1.2309 14.524v12.801l6.1542 10.831 10.339 4.1849 17.724-2.954 8.3698-1.2309 15.262 1.2309 6.6466-2.954 5.9081 0.98468 5.9081-6.4004 4.1849-7.6312-2.2155-7.1389-4.9234-7.6312 2.7079-7.1389 7.1389-8.1236 7.1389-0.49234 10.093 4.431 11.324 0.24617 7.6312-4.1849 4.4311-6.4004-4.9234-7.6312-7.3851-3.4464-4.431-9.1082-7.6313-3.9387-11.078-2.7079-12.062 1.9694h-9.6006l-7.3851-4.1849-13.785 3.9387-9.8468-3.4464-9.8468-7.3851-9.1083-6.1542-15.755-4.6772z" fill="#676f76" stroke="#50565c" stroke-linecap="round" stroke-linejoin="round" stroke-width=".5"/>
   </g>
   <path d="m486.31 685.4 5.6619-0.86162 1.7232-3.9387 0.86161-8.739-7.1389-6.4004-8.0005-4.8003-7.7543-1.7232-12.062 3.4464-5.4157-2.3386s-1.2309-5.5388-0.9847-6.1542 1.8463-6.7697 1.8463-6.7697l0.73851-8.3698-2.0925-5.9081-6.7697-2.4617-14.032 0.98467-5.6619 2.2155-10.093 3.4464-6.5235 0.12308-3.6925 5.4157-0.73853 7.262 0.86161 8.6159 0.49234 11.57 5.908 4.431 2.3386 0.73851 4.1849 7.1389 0.61544 6.5235 9.8468 6.1542 5.2926-2.7078 7.8774-3.8156 5.1696-0.36925 0.36925-6.8927 7.3851 1.3539 7.8774-4.5541s0.49234-5.0464 0.98468-5.1695c0.49233-0.12309 6.5235-1.477 6.5235-1.477l6.4004 5.1696 1.477 5.9696z"/>
   <path d="m261.1 572.7 5.4831-2.2629 5.5702-1.4796 3.3073 4.0906 4.6998 1.6536 2.8721 1.4796 8.2682-1.0444 6.7016-6.0054 4.5258-1.4796 7.659-7.8331h4.4387l2.2629 4.6998s2.698 3.3943 3.0462 3.4814c0.34814 0.087 3.9166 4.9609 3.9166 4.9609l-1.5666 4.4387-6.8757 2.4369-3.9166 2.437-4.6998 0.95737-0.87035 4.2647-4.0036 2.524-4.6998-0.34814-1.6536 3.7424-3.1332 0.26112-3.3943-4.0036-3.8295-0.43519-3.3073-1.6536-6.0924-4.2647-5.222 1.4796-3.7425 0.26112 3.0462-3.5684 1.3055-4.2647-4.4387-3.6554z"/>
   <path d="m260.57 628.04 3.2618-0.4308s4.0618 0.18463 4.431 0.0616c0.36925-0.12309 3.0771-0.67697 3.0771-0.67697l3.2002 1.6616 3.3233 2.0309 2.8925 0.30771 1.6616 2.7694 2.0924 3.0156 0.92313 2.2155 2.2771-2.2155 3.3848 0.12309 1.354 1.8463 0.49234 3.1386-0.86162 2.2155-2.0924 1.1078s-1.0462-2.3386-1.3539-2.4617-3.4464-0.98467-3.4464-0.98467l-1.8463-2.4001-1.7847-1.5386-0.67696-2.6463s-2.7079-0.86159-3.0771-1.0462c-0.36925-0.18462-4.1849-2.154-4.1849-2.154l-2.954-0.80007-2.4001-1.1693-4.8003-0.61542z"/>
   <path d="m198.26 788.89-4.1776-3.3943-1.8277-4.6998-4.4387-3.4814-4.1776-1.0444-3.5684 0.43519-4.0036 4.2647v4.5258l1.6536 3.1332-1.3055 5.4832-1.4796 4.4387 0.78331 4.5258 1.5666 3.3073 2.7851 2.8721 6.3535-1.3055s2.7851-3.9165 1.7407-3.7425c-1.0444 0.17407-3.3073 0.69627-3.3073 0.69627l-3.6554 2.0888-2.611-1.2185 0.78331-3.0462-2.8721-1.7407 1.5666-5.222 1.8277-4.6128 0.52221-5.4831-1.9148-2.7851 0.087-2.8721 1.3926-0.87035 4.6128 0.60923 3.0462 3.0462 4.0036 5.3961 4.2647 2.0018z"/>
   <path d="m191.91 795.59 1.7407 3.3943 3.7425 2.524 2.6981 4.8739 3.3943 2.8721 5.135-2.0018 2.698-0.43516 1.9148 2.4369-6.0924 2.0018-3.4814 1.1314-4.0036-2.1758-1.9147-3.0462-2.7851-0.78333-0.43517-4.1776-3.6554-2.524z"/>
   <path d="m216.98 804.04-2.3499 0.17405 0.87034 3.0462 1.5666 2.7851 5.135 2.1759 1.4796 2.0888 3.3943 1.9148 4.2647-1.4796-4.1776-0.7833-3.2203-3.3943-2.8721-1.2185-2.8721-0.34811-0.95737-4.4388z"/>
   <path d="m209.14 774.18 1.3055-2.3499 0.5222-5.3091 4.1776-4.8739 3.3073-0.87034 5.048 1.8277 8.2682-0.87034 5.3961 1.3055 6.0924 2.1759 4.9609-0.87035-6.9627-2.2629v-3.6554l0.95738-5.3091 3.2202-1.7407 3.2203 1.0444 1.8277 2.9592 0.17406-3.3943-2.611-2.611-5.222 1.3055-2.611 2.611-2.1758 2.8721-3.5684 0.34814-4.4387-1.3055-4.8739 1.9147-1.3925 2.4369-2.8721-0.17407-1.1314-2.3499-4.6128 1.3925-0.87034-1.7407-2.7851 2.2629-3.7425 4.3517-0.78331 1.1314 1.9148 2.1758-0.17407 5.222z"/>
   <path d="m244.48 755.56 2.9592 3.1332 3.1332 1.0444 1.2185-0.95737 2.1758 2.8721 3.8295 2.2629 2.0888 5.9183-0.60923 3.6554-0.60924 4.2647s2.3499 2.3499 2.0018 2.437c-0.34814 0.087 3.2203 0.43516 3.2203 0.43516l1.9148 4.0036 3.5684 4.8739 0.52221 2.9592-6.5276-5.8313 0.17406-3.1332-4.0036-1.3055-3.6554-3.0462-7.2238-0.7833-1.8277-2.8721-2.524-0.60923-1.4796-2.4369 4.0906 0.95736 2.0018 1.8277 4.4387 0.43516-0.17407-3.0462 2.698-0.60923-0.69627-2.2629 2.0018-2.6981-2.7851-2.4369-2.2629-2.524-0.69627-1.0444-2.611 0.26112-3.6554-2.0888-0.95737-2.437z"/>
   <path d="m260.58 796.9 1.1314 2.698-0.17407 3.3943-2.1758 2.7851-1.8277 3.8295-4.0036-0.43519-2.0888-3.3073-5.222-2.7851-2.437-4.6128-3.0462-4.1776-0.2611-2.9592-1.3926-2.1758-3.3943 0.26111-3.4814 1.9147-1.5666 3.1332-1.6536 2.3499-0.95737 2.2629 1.2185 3.0462-4.2647-2.2629 1.9147-3.3073 2.0888-3.5684 2.8721-3.7425 4.5258-1.9147 4.4387 0.26109 3.2203 3.3073 4.6128 4.6128 2.524 3.0462 1.9147 2.8721 5.048-0.34813z"/>
   <path d="m270.76 783.23 4.2647-2.698 3.4814-2.2629 2.437-2.3499s1.3055-5.8313 0.69628-5.8313-1.8277-0.26111-1.8277-0.26111l-1.6536 4.0036-2.611 3.2203-4.8739 2.8721z"/>
   <path d="m263.89 771.48 2.698 2.611 1.2185-0.17407 1.6536 0.95737 6.0924-4.3517 2.0888-1.6536-3.0462-2.6981 0.26111-2.9592 2.2629-0.7833 3.3073-0.60923 1.7407 1.7407-0.60925 2.611 3.2203-2.8721-2.3499-1.3926 0.95737-1.1314 1.4796-1.3055 2.0018 1.5666 3.7425-3.4813-5.135 1.0444 0.78329-1.6536 4.3517-1.4796 3.2202-2.8721 3.7425 0.087 0.60923-2.437-5.048 1.0444-4.5258-0.087-3.6554 3.1332-3.9165 0.60923-2.0018 3.0462-3.1332 2.6981-3.1332 0.87032-0.9574 3.9165 1.0444 3.2202-4.8739 2.1758z"/>
   <path d="m311.16 722.94-2.2155-3.5694-4.0618 0.7385-2.954-0.7385-4.0618-2.7079 4.0618 5.4157 3.4464 2.0924 3.3233-1.2308 2.3386 0.36925z" style="paint-order:normal"/>
   <path d="m294.17 714.32-2.4617-1.477-5.5388 2.0924-5.4157 0.24617-10.708-4.8003-0.98468 2.2155 3.6926 2.0924 0.24617 3.5694 3.2002 2.831h4.308l3.0771-0.86159 4.1849 2.4617 2.3386-3.4464 2.831-0.49236-1.9694-3.0771z" style="paint-order:normal"/>
   <path d="m246.54 484.28-5.4157-1.7232-4.1849 0.24617-3.0771 3.3233 2.7079 3.5694 2.7079 2.954-2.4617 7.8774-1.9694 4.9234 2.954 6.2773-4.431 0.12308-2.3386 3.8156 1.2308 5.6619 3.2002 6.2773 4.0618 3.5695 4.6772-1.9694s2.831-4.3079 2.3386-4.6772c-0.49233-0.36925-1.8463-3.9387-1.8463-3.9387l2.4617-5.1696 3.6925-3.5694-2.0924-7.1389 1.6001-5.785 0.61542-6.1542-2.4617-5.785z" style="paint-order:normal"/>
   <path d="m336.27 505.69 2.954 3.3233 6.8927 0.36925 6.4004-2.2155 3.6926 1.9693s1.6001 3.6926 1.6001 4.1849c0 0.49234-0.98468 8.739-0.98468 8.739l-3.8156 2.3386-4.1849 3.3233-3.2002-0.24617-0.61542-5.5388-2.954-2.954-6.5235 1.477-5.4157 1.8463-2.954-2.954-7.0158 4.1849-1.6001 0.73854-3.2002-5.0465-1.9693-1.8463-6.1542 1.6001-2.2155 3.6925-6.6466-0.98467-2.7078-7.3851 1.7232-6.4004 0.24616-4.431-5.5388-1.8463-3.0771-3.6925-2.4617-3.9387 1.7232-5.6619 2.954-1.8463 1.7232-3.3233 6.2773 2.954 3.3233 6.1542 3.5695 4.5541 2.3386 4.8003 5.4157-0.49233 2.0924 2.831 5.5388-3.3233 5.0465 0.49234 0.61542 3.5695 5.6619 1.1078z" style="paint-order:normal"/>
   <path d="m491.6 626.32 3.6926-2.3386 4.308 1.2309 7.6312 0.36926 13.662-0.73851 6.1542 3.4464 4.5541 7.3851-0.24617 7.5082-3.9387 10.585-3.2002 11.324-5.0465 6.2773-4.1849 3.6926-0.49233 8.739-7.1389-2.5848-3.8156-5.0465-2.5848-1.9694 0.7385-5.2926 3.3233-4.308-0.12308-4.1849-2.3386-5.4157-5.0465-0.98468-5.1696 0.73851-3.0771-1.8463 1.477-2.954-2.3386-3.6925-3.0771-1.1078-2.4617-1.6001-0.98468-5.2926 2.4617-2.831 3.6926-2.8309z"/>
   <path d="m541.94 654.01 4.431 2.954-0.49234 4.9234 0.36926 5.4157 5.785 4.6772 4.5541 5.0464 5.785 2.5848s5.6619-3.0771 6.0312-3.5695c0.36925-0.49234 4.9234-8.1236 4.9234-8.1236l4.6772-7.5082 2.5848-1.6001 8.8621 3.6925-6.6466 6.0312 1.6001 4.308 7.1389-2.3386 4.9234-6.4004s5.0464-6.0312 5.785-6.4004c0.7385-0.36925 4.0618-6.4004 4.0618-6.4004l-0.73851-4.6772-14.77-0.24617-11.57 3.0771-3.2002 1.1078 7.6312-4.1849 10.093-3.4464 8.0005-0.12309s6.7697 1.7232 6.7697 2.2155c0 0.49234 0.7385 6.2773 0.7385 6.2773s-2.3386 5.785-2.5848 6.2773c-0.24617 0.49234-4.6772 9.2314-4.6772 9.2314l-4.8003 7.8774-0.61542 6.2773-0.36925 5.785-4.0618 5.6619-1.8463 4.9234s-6.6466 7.7543-6.7696 8.2467c-0.12309 0.49233-5.9081 9.7237-5.9081 9.7237l-6.7696 0.36926-7.5082-3.2002-8.3697-0.49237h-3.2002l4.4311-4.5541-5.0465-2.4617-4.4311 2.2155-7.6312 0.36925-8.739-0.12308-0.12309-8.8621-0.98467-9.3544-0.61542-7.5082 6.0312 3.5694 3.8156-1.1078 5.1696 5.9081 6.1542 1.3539 2.8309-2.2155 8.6159 0.86158 1.354-3.8156-4.308-4.0618-4.308-4.431-1.3539-1.9694-8.1236-7.5082-0.98467-7.3851-0.49234-3.5695-3.6926-2.0924-3.3233 3.0771-1.2308 7.6313-3.6926 8.0005-0.36925-7.6312 3.5694-9.8468 3.6926-3.8156z"/>
   <path d="m627.36 580.78-4.8003-0.61542-3.9387 5.785-1.2308 9.8468-5.0465 9.7237 0.86159 7.6312-3.9387 10.708-3.2002 6.6466-10.708 1.1078-19.078 6.7696-11.201 4.0618 2.2155-8.2467 1.6001-8.2467-6.5235 5.785-10.093 0.73851 1.9693 6.4004-2.5848 5.4157-6.2773-2.2155-0.98468-11.57-4.431 12.185 8.1236 5.4157 5.908 2.7078 17.847-6.6466 13.662-5.908 9.6006-3.0771 8.2467 1.2308h7.7543l0.36926-9.4775 4.8003-2.954 1.7232-7.0158 1.9694-5.785 0.73851-5.6619 3.2002-7.5082 2.8309-3.2002-0.98468-6.7696z"/>
   <path d="m513.88 584.96-4.5541 1.7232-3.4464 3.8156h-3.9387l-5.0465 4.308 1.8463 6.7697 4.308 5.2926-0.12309 3.4464 10.708 0.36925 10.955 1.2309 7.1389 1.6001 6.1542-0.24617 3.2002-7.8774s-0.12309-4.6772 0.12308-5.2926c0.2462-0.61542 2.5848-4.308 2.5848-4.308l2.0924-5.5388 4.0618-6.1542 3.9387-2.7078 3.8156-6.2773 5.785-1.8463 3.3233-2.3386 1.7232-7.1389-2.0925-4.8003 1.8463-5.1696-1.2309-8.9852-7.0158-6.5235-5.1695-1.1078-7.0158 3.3233-5.908 5.5388-2.0925 5.4157-1.1078 2.4617-3.4464-0.24616-1.2309 4.0618-0.49233 5.5388 1.477 3.6926-2.4617 3.6925 2.0925 3.4464-2.2155 5.1696-2.4617 5.9081-4.8003 2.2155-7.5082-0.73851z"/>
   <path d="m574.81 577.45 1.477 5.2926 3.5694 4.4311-0.61543 6.1542-0.49233 5.0465h-2.3386l0.98467-6.6466-0.86159-4.9234-3.6926-6.7697 1.477-2.5848z"/>
   <path d="m634.01 537.08 8.1236 1.354-1.354 10.708-1.6001 6.5235-5.0465 5.9081-1.477 9.8468-0.49233 3.4464-8.1236-0.98467-6.1542-1.9694-6.2773 3.5694-4.8003 8.1236-1.2308-9.8468-3.0771-3.2002-0.86162-10.585-5.6619-6.6466-3.2002-5.6619-0.49234-7.6312-5.1696-4.6772-3.4464-5.6619-6.6466 1.477-4.9234 2.4617-6.4004 1.477-5.1696-1.6001-3.4464-5.6619-3.9387-2.8309-5.1696-2.954-6.4004-3.8156-7.262 1.1078-7.0158-2.5848-4.431 2.2155-5.5388-2.954-5.0465 3.3233 1.3539 7.7543-2.7078 6.2773-6.7696-0.24617-8.9852-4.1849-5.9081-8.0005-5.2926-3.8156-6.5235-1.6001-5.2926 2.831-4.6772 3.0771-3.0771-4.431-3.5694 3.2002-3.8156 2.8309-1.6001 2.2155-11.324-1.1078-7.5082-3.4464-4.5541-1.9694-8.2467 1.3539-8.0005-3.8156-2.7079-2.4617 1.8463-4.5541-4.6772-1.7232-5.4157-4.4311 0.73851 8.4929-10.093-5.785-7.6312-3.5695-1.477-4.8003 3.9387-1.8463 5.6619 2.4617 0.12308 1.7232 3.4464-4.6772 4.5541-1.8463 4.6772-1.477 6.1542 2.4617 5.785 3.8156 5.5388 3.0771 5.785-4.6772 8.2467-1.6001 4.308-1.3539-0.49233-4.8003-0.73851-4.8003-2.7078-4.6772 0.12308-2.4617-7.3851 1.354-3.5694-3.9387-0.24617-5.1696 3.0771-4.8003 3.2002-0.9847-1.477-8.1236s-2.954-2.954-2.954-3.5694c0-0.61543 1.2308-6.2773 1.2308-6.2773l7.262-1.3539-2.5848 4.6772s-3.2002 1.477-2.8309 1.9694c0.36925 0.49234 2.3386 3.6925 2.5848 4.308 0.24617 0.61542 1.9694 6.4004 1.9694 6.4004l2.5848 4.1849 3.3233-0.36925 8.6159-2.7079 1.8463 5.6619 1.7232 3.4464 0.98467 3.9387 2.5848 3.4464 8.6159-3.2002 2.4617-2.954-2.7078-2.831 4.5541 0.86161 3.9387 1.6001 7.6312-0.24617 8.2467 1.1078 3.8156 7.5082 4.5541 2.954 3.8156 1.7232 2.3386 4.9234 6.4004 0.73851 7.3851 1.6001s3.5694-2.7079 3.3233-3.2002-2.4617-7.1389-2.4617-7.1389-4.9234 0.98467-5.5388 0.61542c-0.61543-0.36925-4.9234-2.2155-5.5388-2.5848-0.61542-0.36925-7.1389-2.954-7.1389-2.954l12.432 1.9694s7.0158 0.24617 7.3851 0.86159c0.36926 0.61542 1.9694 4.8003 1.9694 4.8003l0.36925 4.431 3.3233 2.3386 2.954-1.3539-1.7232-6.0312-0.36925-4.6772 6.7697-1.3539 8.4928 2.3386-6.4004 4.308v3.4464l0.49233 3.8156 12.555 0.86159 8.9852 2.5848 6.2773 4.8003 9.4775 4.8003 4.6772 6.2773 8.6159-2.0924 4.4311 2.5848 5.6619 8.6159s2.0925 5.9081 2.0925 6.4004 1.3539 7.1389 1.3539 7.1389l5.2926 3.0771 10.708 2.831 11.816 0.86159z"/>
   <path d="m377.13 370.18 2.5848 8.2467h4.308l4.4311 6.1542 0.24616 6.4004s1.2308 3.9387 0.49234 4.308c-0.7385 0.36925-2.831 4.1849-2.831 4.1849l0.86161 2.954 3.4464 0.86162 1.6001-4.308 1.9694-0.73851-2.5848-5.6619 1.6001-4.308 2.3386 0.73851 2.8309 2.0924 1.6001 3.0771 0.49237 0.98467 5.6619-2.0924 3.6926 0.98467 1.8463 2.831 4.1849-3.4464 5.2926-1.7232 4.1849-0.24617s-0.86159 12.678-0.73851 13.293 2.954 6.8927 2.954 6.8927l3.0771 5.4157-1.2308 3.3233 1.3539 4.9234 6.2773 12.308-0.7385 3.2002-5.5388-4.4311-3.0771-9.3544-0.12308-4.8003-1.9694-9.8468-7.3851-2.3386-5.6619-0.86161-3.0771 0.73853-1.2308 3.9387-8.2467 3.8156-7.1389 1.477-8.1236-2.4617-1.8463-4.9234-4.308-1.9693-1.6001-3.6926-2.3386 0.12309-1.6001-5.0465-1.9694-5.785 1.2308-5.2926-0.24617-5.4157 1.7232-5.4157z"/>
   <path d="m369.13 361.69-0.24617 3.4464-0.7385 0.86159 0.61542 3.2002-5.5388 1.354-0.49234 3.0771 1.3539 1.2308 0.12308 3.6926-1.477 7.6312-1.1078 4.0618 2.0924 3.4464-0.24617 3.3233 0.49234 2.5848 0.24617 1.7232-3.6925 11.201-4.9234 3.0771-5.4157-0.36925-4.308 1.8463-4.1849-0.24617-5.5388-1.9694-4.6772 0.7385-5.2926-2.5848-4.0618-1.7232-7.3851 0.36925-3.9387-4.1849-2.8309-6.1542-3.8156-1.8463-4.0618-4.9234-0.86159-7.3851 4.431 1.7232s3.3233-1.8463 3.8156-1.8463 4.431-2.954 4.431-2.954l4.5541-2.7079 3.8156-7.262s1.6001-3.9387 2.0924-4.1849c0.49233-0.24617 9.1082-3.4464 9.1082-3.4464l-2.4617 3.8156-5.5388 5.2926-3.2002 5.9081-4.4311 2.831-5.785 4.0618-1.3539 3.3233 2.7078 4.431 4.6772 1.8463 5.6619 2.4617 2.954-2.2155 6.5235-1.6001 4.8003 2.0924 3.2002 2.7078 4.6772 1.3539 1.8463-5.0464 4.8003-4.0618 5.5388-4.9234 2.7078-6.0311-0.36925-8.1236 0.24617-6.7697 5.6619-2.4617 2.831-3.5695z"/>
  </g>
  <g stroke-width=".26458px">
   <path d="m172.81 586.31 5.2607 4.4868 8.5293 8.5293 11.314 7.8331 2.7851 11.663 0.87034 9.5738 0.17407 10.618-3.3073 8.5294-2.611-3.4814 3.4814-4.6998-0.34813-12.359-10.096-10.444-8.3553-5.3961-13.751-2.7851-5.7624-10.744z"/>
   <path d="m182.25 639.71-2.7851-4.1776-5.5702 0.52221-1.5666 3.6554-0.87033 4.1776 1.0444 7.659-4.1776 2.4369-4.5258 5.3961-0.34813 4.1776 2.611-2.611 2.437-2.611 2.611-4.3517 3.3073-1.7407 0.17407-6.0924-0.69627-5.3961 1.3925-2.611 3.1332-0.69628 3.3073 4.3517h4.0036l3.4814 3.4813 3.4156-1.1818 1.9694-1.4462 0.98468-2.7386-1.2616-0.40002-0.7385 1.2616-1.2924 1.5693-2.0001 0.76927-1.6924-1.2616-1.6001-1.5386-0.40003-0.89236-3.0156 0.80004z"/>
   <path d="m668.77 379.83-4.7869 2.1758-3.7425 3.8295 6.2665-1.4796 3.1332-3.1332z"/>
   <path d="m674.25 387.93s5.048-2.3499 5.4831-2.524c0.43516-0.17407 6.7886-2.8721 6.7886-2.8721l0.87034 1.6536-4.7869 2.1758-6.6146 2.0888z"/>
   <path d="m687.57 389.14 2.0018-5.4831 2.1758-3.1332 2.2629-0.95739-0.087-4.0906 2.0888-5.135 0.69628 4.9609-0.60923 3.5684 0.69625 3.0462-3.4814 2.611-2.0888 1.0444z"/>
   <path d="m707.67 361.47-0.52221 5.048 2.2629 6.8757 0.34814 5.6572-0.43516 6.2665 2.0888 5.309 4.0906 5.7443 0.52221 5.8313-3.8295-5.4831-1.6536-4.6998-2.524-4.6998-0.26109-7.572-0.87035-7.572-2.1758-5.3091z"/>
   <path d="m818.88 285 8.0005 0.86159 10.339-0.36925 8.6159 0.98467 11.324 0.73851 7.1389 1.477 5.908 5.5388-2.5848 3.0771 5.6619 4.1849 2.4617 4.308 0.49234 6.4004 1.2309 6.4004-23.14 11.816 3.6926-8.9852 3.0771-3.9387 0.12309-5.6619s-1.8463-3.8156-1.9694-4.308c-0.12308-0.49234 0.61542-4.6772 0.61542-4.6772l-4.9234-1.2309-10.708-1.8463-10.216-0.36926-6.4004-3.3233-8.1236 2.5848-4.0618 1.8463-4.9234-3.0771-5.4157 3.2002-0.36925-3.8156 0.7385-4.1849 0.49234 5.1696s3.6925-1.2308 4.5541-1.6001c0.86159-0.36926 4.5541 1.9693 4.5541 1.9693l4.9234-3.0771 7.0158-1.8463 5.6619 0.36925 6.1542 1.1078 10.955 1.1078 2.7079-0.9847 7.5082 3.8156 5.5388 1.6001-2.954-4.3079-2.3386-2.7079-9.3544-1.7232-7.3851-1.2308-12.801-0.61542-6.7697 0.49234z"/>
  </g>
 </g>
 <g transform="translate(4.4151 -.29982)">
  <path d="m433.93 701.34-2.4002 1.5386-1.0462 1.1693-0.7385 1.6617-0.24617 1.6616 0.67696 1.2924 2.5232 0.80005 2.0925-0.4308 2.2155-1.1693s3.2617-1.7232 3.6926-2.0309c0.4308-0.30771 3.8772-1.7848 3.8772-1.7848l2.2771-0.61542 3.5695 0.0615 0.92313 0.98467 0.55388 1.8463-0.73851 1.9694-0.92313 2.2155-1.2308 0.98468-0.7385 2.0924-0.4308 1.9694 0.36925 1.477 1.0462 0.92313 2.154-0.30771 2.2771-1.6001 2.7079-2.3386 1.7847-2.154 1.1693-2.3386 0.86159-1.9078 2.4617-1.4155 1.9078-0.49236 2.4617 0.30773 2.6463 0.30771 1.0462 0.92313 1.7232 0.98468 2.5232 0.86159 0.18463-0.73851-0.18463-0.7385-0.18462-1.477 0.18462-1.0462 1.6001-2.0924 1.2308-1.477 1.477-2.831 1.5386-4.0618 0.7385-4.9234v-3.8156l-1.7847-3.0771-1.4155-1.2308-1.2308-0.30771-1.3539 0.55388-1.8463 0.80005-2.154 1.2924-1.2308 0.92313-1.7847 0.55388-1.8463-0.24617-1.9078-0.98467-1.1693-0.49234-1.9693-0.24617-1.8463 1.2308-1.8463 1.5386-3.3233 2.5232-4.5541 2.5848-1.3539 1.8463-2.7079 1.9078-2.5232 1.4155-3.1386 1.7847-3.5695 1.8463z" fill="#092b4e" stroke="#0f457d" stroke-width=".05"/>
  <path d="m323.34 618.62 2.2771-0.18462 3.1387-0.67699 3.6925-0.30771 2.154 0.43079 2.8925-0.36925h1.5386l0.92316 1.1693 3.2002 1.2924 4.0618 0.36925h2.954l1.7232 0.86159 0.36925 1.1693-0.55388 1.9078-2.154 1.6617s-1.2308 1.7232-1.3539 1.9694c-0.12309 0.24616-1.2308 2.6463-1.2308 2.6463l-0.36925 3.2618-1.7848 2.7078-2.154 1.4155-3.631 1.4155-2.8925 0.92313-3.8772 0.67696-2.954-0.61542-1.5386-0.55388-2.954 0.12308-3.6925 0.86159-1.6001-0.49233-1.1693-0.24617-1.7232 0.61542-0.98468-0.36925-1.3539-1.2308s0.0615-1.6617 0.0615-1.9078c0-0.24616 0.92313-1.8463 1.0462-2.0924 0.12309-0.24617 0.98468-0.80004 0.98468-0.80004l0.24617-1.7847-0.49234-2.0925-0.92313-2.5848-0.67696-1.7232-0.55388-1.9694 0.30771-3.1386 1.4155-2.277 1.8463-1.1078 1.6616 0.30771 1.9078 0.61545 1.2308 0.18463z" fill="#092b4e" stroke="#0e457e" stroke-width=".05"/>
  <path d="m742.08 490.68 3.3233 0.86159 4.308 2.3386 7.0158 5.9081 15.509 13.785 9.3544 9.6006 5.785 5.5388 5.785 5.0465 5.4157 5.9081 5.9081 6.5235 3.0771 4.6772s1.3539 5.4157 1.3539 6.0311-0.12309 5.6619-0.12309 5.6619l-1.3539 9.1083-1.9694 4.0618-4.4311 2.954-4.1849 5.2926-2.831 3.5695-1.477 2.7078-2.3386 2.2155-10.585 3.5694-3.3233 0.49233-1.7232-1.3539-6.4004-0.61542-8.3698-0.24617-5.6619 1.3539-7.8774 1.2308-1.477-0.24616-3.4464 2.7079-10.831-5.0465-8.3698-3.9387-7.1389-3.0771-7.7543-3.5695-4.9234-4.6772-2.8309-5.9081-0.86159-4.0618-1.2308-4.6772-1.8463-5.785-0.98468-6.5235 0.49234-8.1236 1.2309-11.939 2.0924-7.6312 2.5848-7.6313 3.3233-6.6466 4.9234-6.1542 4.0618-4.5541 6.1542-3.5695 6.0312-2.954 4.8003-1.8463 8.0005-0.49234z" fill="#092b4f" stroke="#0f457d" stroke-width=".26458px"/>
  <path d="m222.48 540.22 1.7232 0.98467 1.6616 1.2308 1.9694 2.5848 1.6616 2.0309 1.9694 3.4464 1.477 2.2155 0.67696 3.2002 0.67697 3.8772 1.2308 3.3848 0.92313 3.3233 0.4308 2.4617-0.55388 3.5079-1.1693 1.6616-3.1386 0.98467-2.5848-0.24617-2.5848-0.67696-2.2771-0.61542-1.8463-1.1078-1.5386-1.477-0.73851-2.3386v-1.5386l1.477-2.831 0.61543-2.8925 0.36925-2.5848v-2.154l-0.67696-2.5848-0.73851-3.3233-1.3539-2.5848-1.2924-2.6463v-2.4617l0.86159-2.2155 1.2924-0.55388z" fill="#092b4e" stroke="#0e457e" stroke-width=".05"/>
 </g>
 <g transform="translate(4.4151 -.29982)" fill="none" stroke="#42372d">
  <g stroke-linecap="round" stroke-linejoin="round">
   <g stroke-width="2.26">
    <path d="m421.69 764.3 9.3043 0.57441 8.3552-1.7407 10.618-3.4814 11.837-5.9183 7.1368-3.3073s2.2629-1.0444 3.1332-0.87034c0.87034 0.17407 3.4814 1.7407 3.4814 1.7407l3.4814 2.9592 5.5702 2.2629s6.0924 1.9147 7.1368 2.0888c1.0444 0.17407 8.1812-1.3925 8.1812-1.3925l3.3073-3.6554 3.8295-4.6998 6.9627-1.5666 7.659-0.69628 4.3517-3.6554 5.222-2.7851 4.5258-1.5666-0.69627-9.0515-2.7851-6.9627-1.9147-4.8739-11.314-4.6998-7.1368-4.1776-5.3961-5.7442-5.2221-0.69628-7.3108 4.3517-5.048 2.9592"/>
    <path d="m491.05 758.78-2.2629 4.6998-3.6554 5.048-1.7407 6.6146-1.0444 6.6146 0.52221 5.7443-0.95737 6.9627"/>
    <path d="m530.39 717.7 6.9627 1.7407 5.222 0.34814 8.1812-0.34814 9.5737-3.1332 4.6998 3.8295 3.1332 3.8295 6.9627 2.2629h7.659"/>
    <path d="m572.68 746.94 4.0036 3.3073 4.1776 4.0036 3.8295 1.7407 2.611 4.3517 2.611 5.7442 2.9592 5.5702 3.1332 3.3073 1.9147 2.611 0.17407 5.7442 2.9592 1.7407 4.8739-1.2185 3.8295-1.5666"/>
    <path d="m583.74 755.43 2.3064-1.9583 3.1332-3.1768 3.0897-2.0453 4.6998-0.7833"/>
   </g>
   <path d="m298.27 687.06-0.26109-5.3091-0.17407-7.4849 0.17407-5.6572 2.3499-4.0036 5.9183-5.9183 3.7424-4.1776 2.2629-5.5702 0.17407-6.6146-1.3926-4.4387 0.69628-4.7869-0.43519-4.0036-1.8277-4.7869-1.0444-3.3073" stroke-width="3.26"/>
   <path d="m312.28 648.94 3.4814-0.60923 3.1332-1.2185 4.3517-3.3073 1.6102-2.339" stroke-width="1.26"/>
  </g>
  <path d="m646.31 679.58-2.611-5.9183-3.6554-6.4405-5.3961-4.1776-4.8739-1.3925-5.7443-0.69628-6.2664 1.0444-4.6998 2.437-1.2185 1.3925 0.17407 4.5258-3.4814 6.6146-5.3961 2.9592" stroke-width="2.26"/>
  <path d="m629.78 661.65 4.1776-2.7851 1.7407-4.0035 3.8295-5.7443 4.1776-3.8295 4.6998-2.0888 4.6998-0.17407" stroke-width="2.26"/>
  <g stroke-linecap="round" stroke-linejoin="round" stroke-width="3.26">
   <path d="m636.57 575.48 6.6146 1.3925 5.7442 1.2185 7.4849 2.0888 7.833 2.9592 5.7442 1.0444 11.488 2.437 8.3552 2.7851 10.966 7.4849 8.5294 6.6146 8.0071 6.2664 9.9219 7.3109 10.27 7.4849 8.3553 5.9183 4.0035 0.34814 7.659-3.3073 10.792-5.5702 12.011-6.0924 10.444-7.1368 9.3997-6.4405 11.488-8.1812 7.833-5.5702 4.8739-9.0516v-5.9183l-0.34814-7.1368 1.0444-7.1368-0.34814-8.1812 0.34814-7.659 1.9147-9.7478 3.4814-8.7034 4.0036-7.4849 4.0036-6.7886"/>
   <path d="m957.03 443.71-6.7886-5.7442-7.659-7.1368-9.3997-7.4849-11.837-6.0924-12.881-6.9627-5.9183-3.6554-8.0071-2.2629-6.0924-0.87032"/>
   <path d="m332.99 462.86v-9.9219l0.17406-10.618 2.9592-4.6998 4.3517-1.2185 9.9219-1.5666 6.9627-1.5666 1.2185-3.4814 0.87032-5.9183 2.2629-8.1812 4.1776-12.011 1.7618-6.1434 2.2822-12.739 2.9187-11.754 0.17407-7.3109-0.34814-6.6146"/>
   <path d="m301.49 422.3-3.1332-4.8739-3.3073-6.7886-0.52221-11.314 0.87035-11.14 2.7851-7.3109 6.6146-6.2664 6.2664-3.8295 7.4849-3.6554 8.0071-4.3517 8.1812-2.4369 7.3109-1.7407h10.27l10.444-0.17407 9.9219 0.69628 5.9183-1.2185 9.2256 0.17407 4.6998 3.4814 6.2664 7.8331 3.8295 7.659 2.437 6.4405 0.73851 1.8155"/>
   <path d="m463.91 405.38 0.98467 3.6925 0.61542 4.6772-1.1078 9.1082-3.3233 7.1389-8.8621 1.9693-9.4775 5.6619-5.5628 4.8715-4.1785 0.4743-8.3988-1.5666-10.488-5.3526-30.81-0.87035-18.451-1.3926-7.4849-0.52218"/>
  </g>
 </g>
 <g transform="translate(4.4151 662.7)" fill="none" stroke="#5a4c3d" stroke-linecap="round" stroke-linejoin="round">
  <g stroke-width="3.26">
   <path d="m344.48 64.096-2.9592 9.2256s-3.1332 7.3109-3.8295 8.0071c-0.69628 0.69625-7.1368 7.833-7.1368 7.833l-4.3517 1.5666-8.0071 0.52221-10.27 3.1332s-6.9627 4.6998-7.659 5.222c-0.69628 0.52221-5.7442 5.5702-5.7442 5.5702s-1.5666 4.3517-1.9147 5.9183c-0.34814 1.5666-0.52221 7.659-0.52221 7.659l0.87032 6.7887-1.2185 5.5702-3.6554 6.7886-6.0924 5.9183-6.7886 6.9627-9.3997 6.2664-7.659 2.9592-8.5293 1.9147-8.3553-1.5666-7.8331-1.9148-11.314-1.2185-7.4849 0.17407-14.448-0.17407-6.0924-0.34814-10.618-3.1332s-7.3108-4.6998-8.1812-4.8739-9.3997-7.659-9.3997-7.659l-5.222-8.3552-2.611-10.444-0.17407-9.3997 1.9148-11.837 2.437-8.1812 0.52221-8.5293-3.1332-5.5702-3.6554-4.3517-6.9627-4.5258-7.659-4.3517-7.659-4.8739-8.0071-8.7034-3.8295-6.2664-1.2185-9.9219 2.2629-7.833 5.3961-10.27 6.9627-4.5258 8.0071-0.34814 9.9219 1.0444 4.3517 3.6554 3.4814 2.4369 5.222 0.34814 4.1776-3.1332 2.7851-3.8295 4.0036-4.5258 7.1368-1.2185 5.3961-3.4814 5.222-6.9627 4.6998-8.3553 6.0924-6.4405 6.7886-7.4849 4.3517-4.7869"/>
   <path d="m322.72 91.077-4.3517-7.3109-4.5258-9.0515-3.3073-3.6554-4.8739-1.5666-4.3517 0.69628-7.1368 0.34814-11.663-0.34814-4.8739-1.7407-4.8739-2.9592-4.3517-1.5666-7.1368 0.34814-6.6146 2.4369-6.0924 2.611-9.5737 0.17407-11.314-2.4369-10.618-3.3073-8.3553-5.3961-4.6998-7.833 0.17407-12.185 1.5666-5.3961 5.048-5.048 5.9183-4.8739 2.7851-5.9183 2.0888-7.4849 4.6998-6.7887 6.7886-5.048 4.6998-4.6998"/>
   <path d="m162.75 84.462 4.0036-3.1332 3.6554-2.7851 4.0036-1.5666 6.4405-2.4369 9.0515-4.5258 5.3961-5.3961 7.659-5.9183 3.3073-4.0035"/>
   <path d="m120.98 41.293-4.8739-4.0036-7.1368-5.2221-5.7442-4.1776-4.1776-4.1776-5.3961-7.659-4.3517-9.0515-5.222-9.7478-5.9183-7.4849-7.8331-4.8739-14.274-5.2221-17.059-4.6998-9.3997-2.611"/>
  </g>
  <g stroke-width="4.26">
   <path d="m367.28-159.58 1.7407 5.7443-0.17407 7.659-0.87032 8.7034-1.7407 8.0071-2.0888 6.9627-4.3517 8.5294-4.5258 8.0071-6.6146 8.1812-7.659 7.659-7.6859 5.5648-9.5468 6.9681-5.7442 6.0924-7.3109 4.8739s-7.659 5.048-8.3552 5.048c-0.69628 0-6.0924 1.3925-6.0924 1.3925s-7.659-0.52221-8.3552-0.52221-12.185-2.7851-12.185-2.7851l-9.9219-5.3961-6.7887-5.222-7.3109-8.1812-4.8739-5.7442-4.3517-8.1812-3.6554-7.4849-1.9148-6.9627-4.3517-7.1368-6.0924-7.3109-6.2664-7.3109-2.9592-6.4405v-8.0071l0.87034-5.5702 3.1332-6.7886 5.3961-7.833 2.7851-5.2221 2.0888-8.0071 4.1776-5.3961 6.4405-3.4814 9.2256-2.2629 9.0515-1.0444 13.055 0.34814 7.659 0.87035 13.055 1.9147 11.488 1.0444 12.881-1.0444h10.966l9.0516 1.9148 8.1812 4.5258 6.9627 6.7886 6.2664 8.5294 4.8739 5.5702 6.6146 5.3961 9.3997 3.8295 10.966 2.9592 15.84 4.8739 7.833 4.1776 4.8739 6.2664 4.6998 2.7851 9.3997 0.34814 13.925-1.0444 12.881-0.52221h13.055l11.837 2.7851 9.2256 5.5702 9.5737 4.6998 11.314 3.4814 6.7887 1.5666 2.611 6.0924-4.5258 5.3961-3.6554 6.4405-2.0888 7.3109s-2.9592 7.1368-3.8295 7.4849c-0.87032 0.34814-9.2256 3.8295-9.2256 3.8295l-9.3997 5.7442-2.2629 2.9592"/>
   <path d="m251.35-191.44-0.17406 5.222 3.1332 5.048 3.6554 7.3109s3.1332 5.222 3.4814 6.0924c0.34813 0.87035 0.17406 7.659 0.17406 7.659l-0.34813 6.0924 2.0888 4.6998 3.4814 3.4814 2.437 4.3517 1.3925 6.9627s0 5.048 0.34814 5.7442 4.5258 4.6998 4.5258 4.6998l7.1368 1.7407 12.011 2.437 6.7886 0.17407 8.1812 1.9148 9.2256 3.8295 3.4814 4.6998 3.6554 9.7478 0.87035 8.0071 6.6598 7.942"/>
   <path d="m236.91-110.67h5.222l6.0924-1.7407 9.3997-2.611 5.9183-4.0036 6.7886-5.3961 2.2629-1.7407"/>
   <path d="m504.45-45.567 9.2256-1.5666 5.3961-0.17407 12.185 2.2629 11.488 1.2185"/>
  </g>
  <path d="m333.56-83.579 4.3065 3.3724 6.4405 4.5258 9.9219 3.6554 8.7034 4.5258 7.3109 8.1812 7.3109 9.7478 9.0515 9.3997 11.14 5.5702 12.533 1.3925 14.1-1.9147 14.099-2.0888 15.318 0.17407 7.833 0.69628 9.7478 1.9148 2.9592 1.5666 2.2629 3.4814 0.52221 4.6998 0.69628 7.659 2.611 6.4405 5.7442 5.3961 6.7886 5.9183 3.1332 5.048 2.0888 9.2256s-1.5666 5.9183-1.5666 6.6146c0 0.69625-3.6554 9.7478-3.6554 9.7478l-4.0036 15.318-5.9183 5.5702-7.659 4.8739-9.0515 3.8295-11.14 2.7851-8.5293 1.5666-11.314 0.52221-6.7886-0.87035-11.14-1.2185-5.048 0.69628-6.9627 3.3073-4.6998 4.1776-3.6554 4.3517-2.4397 2.8583" stroke-width="3.26"/>
  <path d="m412.37 64.444 0.52221-6.4405 3.1332-5.5702 2.2629-5.9183 0.52218-4.6998-4.0035-5.5702" stroke-width="3.26"/>
  <g stroke-width="4.26">
   <path d="m524.47 45.819 1.9148-6.7887-0.69628-7.3108-1.0444-11.488 2.2629-16.885 6.6146-16.885 5.5702-15.492 3.6554-14.796 4.3517-13.577 2.2629-10.096 8.8775-10.096 6.0924-5.3961 8.3553-4.5258"/>
   <path d="m535.96-18.238 5.7442 4.6998 6.2664 4.1776 6.2664 1.0444 6.6146-1.7407 10.792-4.5258 9.7478-4.1776 8.5293-4.0036 6.4405-1.0444 9.7478 1.0444 8.1812 1.2185"/>
   <path d="m558.24-77.595 5.222 6.0924 4.6998 5.3961 6.0924 5.9183 6.0924 3.8295 6.9627-0.52221 9.7478-5.9183 6.6146-6.0924 6.0924-5.9183 4.0035-7.1368 5.3961-3.8295 6.6146-0.52221 7.833 3.4814"/>
   <path d="m704.28 83.418 4.5258 0.34814 4.1776 1.2185 7.4849 0.52221 4.5258-0.52221 4.8739-2.9592 3.8295-5.3961 3.3073-6.7887 4.3517-4.6998 3.8295-5.7442 5.048-6.4405 4.5258-7.659 3.1332-6.9627 2.611-7.4849 0.5222-6.0924 0.52221-6.2664-1.2185-5.7443-5.5702-12.185-2.2629-6.4405-1.2185-9.9219-1.5666-8.8775 0.17405-7.4849"/>
  </g>
 </g>
 <g transform="translate(4.4151 -.29982)" fill="none" stroke="#858487" stroke-linecap="round" stroke-linejoin="round" stroke-width="4.26">
  <path d="m654.19 523.11-5.9696 2.2771-7.7543 3.9387s-5.3542 2.5848-5.7234 2.7079c-0.36925 0.12309-5.9696 2.3386-5.9696 2.3386l-6.7081-0.24617-4.0003-2.0309-2.4617-3.631-1.6617-6.2158-0.36925-6.0312 0.67696-6.5235 1.2924-6.4004 0.67696-7.4466 0.86159-7.5082-0.0615-6.9543 0.4308-5.2926-0.61543-4.7387"/>
  <path d="m686 461.3-5.3961-1.5666-8.5293-3.4814-9.9219-4.0036-5.048-1.3926-6.9627 0.87035-8.1812 2.7851-7.8331 4.6998-8.1812 5.222-5.5702 5.222-3.5395 1.7034-7.949 0.73351-9.0515-1.9148-10.444-4.0036-7.659-2.7851-2.611-1.9147 6.9627-4.8739 7.4849-10.27 8.8775-8.5293 11.14-11.837 9.5737-7.3109 8.8775-8.8775 9.9219-7.8331 13.055-7.3109 9.3997-0.69628 10.096 2.611 10.618 3.3073 11.14 2.9592 11.488 5.3961 7.3109 3.4814"/>
 </g>
 <g transform="translate(4.4151 -.29982)" fill="none" stroke="#a09689" stroke-linecap="round" stroke-linejoin="round" stroke-width="3.26">
  <path transform="translate(0 663)" d="m512.96 178.53 1.6617-8.4929 0.80005-4.431 0.12308-3.8156-0.12308-4.1849-0.86159-5.108-1.6001-3.2002-3.2617-2.6463-3.9387-2.5232-3.2617-1.2924-4.9849-1.6001-8.0005-1.8463-16.13-3.403-9.3126-3.4814-13.664-6.3535-12.098-6.9627-9.3997-6.2665-9.1386-7.3108-4.3517-3.3073-8.8775-9.3997-6.6146-5.048-5.8313-3.0462-5.048-1.8277-6.0053-1.8277-5.3091-1.0444-4.6998-1.5666-8.6599-3.786-5.7443-2.9156-12.228-7.4414-9.7043-6.1794-17.537-10.226-3.6554-2.2629-4.6128-4.2647-5.135-5.5702-6.0924-5.5702-7.3109-4.4387-23.847-13.577-17.407-10.444-8.7904-5.4831-7.746-5.8313-6.5276-5.309-4.5258-4.7869-4.6128-5.7443-2.0018-4.5258-1.1314-4.9609-0.43517-4.8739-1.1314-6.8757-1.9148-6.1794-2.698-4.5258-3.4814-5.222-2.9592-3.8295-3.1332-4.7869-0.95737-2.6981-0.95738-3.6554 0.087-4.9609 0.95737-4.2647 1.7407-7.3979 0.95738-8.7904 0.7833-6.1794-0.5222-6.9627-0.87034-4.8739-1.9148-5.4832-1.5666-4.9609 0.087-5.3091 0.2611-3.2202 1.0444-5.3961 2.524-13.664 2.2629-8.1812 2.437-10.966 4.0036-9.0515 2.0888-8.0071-0.2611-9.1386-1.2185-8.7034-3.3073-10.705-2.524-7.2238"/>
  <path transform="translate(0 663)" d="m212.2-231.28 5.1696 17.97 0.98468 8.8621v9.3544l-2.4617 8.1236-4.9234 15.755-4.6772 13.785-3.4464 18.709-0.24618 4.1849 1.477 5.9081 1.477 5.4157 1.9694 8.1236 0.24617 6.4004-1.477 10.093-0.98468 7.8774-1.477 9.6006 0.49234 5.1696 2.954 6.6466 6.655 7.7199 3.8295 5.9183 1.7407 5.9183 1.0444 7.3109 0.52221 5.9183 2.437 6.4405 2.437 4.3517 4.6998 5.5702 5.222 5.2221 6.4405 4.8739 13.403 8.5293 19.496 12.533 16.536 9.3997 10.096 6.6146 6.6146 5.5702 6.4405 6.0924 9.2256 6.6146 16.214 10.087 18.955 11.201 11.693 5.785 5.785 2.5848 8.3698 1.9694 9.4775 2.2155 5.4157 3.2002 6.6466 4.1849 3.8156 4.0618 5.6619 5.6619 5.5388 5.0465 8.1236 6.1542 8.8621 6.0312 9.7254 5.7958 6.4405 3.3943 9.3126 3.9165 9.2256 3.0462 8.5294 1.8277 9.7478 1.3055 8.7904 0.26109 11.488-1.0444 9.8348-1.8277 6.4405-2.0888 7.1368-3.0462 6.7887-4.1776 4.0035-3.2203 6.0054-5.4832"/>
  <path d="m712.03 83.742 4.9609 0.78331 7.746 1.5666 7.2238 1.3925 6.3535 1.5666 6.6146 1.7407 5.9183 2.6981 6.0053 3.5684 3.8295 3.5684 3.6554 4.4387 3.3943 4.6128 3.0462 6.0054 1.8277 5.048 1.6536 7.3979 0.52221 5.048-1.2185 5.222-1.7407 3.6554-2.7851 4.2647-3.5684 4.2647-4.2647 5.135-3.0462 3.9165-3.1332 6.5276-2.0888 5.222-2.1758 5.6572-1.4796 4.6128-0.5222 3.5684-0.7833 4.5258 0.34814 4.7869 0.69627 5.048 1.3055 5.5702 1.5666 5.3961 2.524 7.659 1.7407 4.1776 2.524 5.4831 3.7425 7.2238 1.8277 3.9165 1.7407 4.9609 0.87035 4.0906 0.95737 4.5258-0.43516 5.7442s-0.60926 7.1368-0.60926 7.4849 0.17407 5.222 0.087 5.6572c-0.087 0.43516 0.95737 6.7016 0.95737 6.7016l2.8721 6.2665 2.1758 5.3961 1.8277 5.048 0.87035 4.4388-0.52221 4.4387-0.7833 7.0497-2.1758 5.8313-2.611 6.0924-3.2203 6.7887-3.5684 7.2238-3.9165 6.9627-5.5702 7.8331-4.0906 5.7442-4.6998 6.4405-3.8295 5.3091-3.6554 7.2238-4.1776 6.7886-5.7442 9.1386-10.183 16.972-16.711 27.764-9.2256 16.014-12.011 21.323-4.6128 8.3552-6.0924 12.011-6.3535 12.011-3.4814 8.0942-5.3091 11.75-3.2202 8.0942-3.4814 9.2256-5.3091 15.84-4.7869 14.535-5.3091 18.103-6.7886 19.583-4.1776 12.011-3.8295 13.142-3.6554 11.663-6.0053 19.235-5.222 14.448-6.6146 17.842-5.5702 13.403-6.2664 12.62-5.9183 12.446-5.9183 10.531-9.3997 14.274-6.1794 7.746-3.2203 3.9165-1.8712 1.8712 1.8712-1.8712"/>
  <path transform="translate(0 663)" d="m516.98 179.42 2.611-6.8757 4.1776-11.227 3.7424-10.009 2.9592-6.7016 4.4387-8.8775 3.8295-6.7886 5.222-8.1812 2.0888-2.9592 6.0924-5.6572"/>
  <path d="m728.39 391.76 2.437 2.3499 1.9147 3.6554s0.69627 3.7425 0.87034 4.1776 1.8277 6.7886 1.8277 6.7886l1.2185 4.5258 2.8721 4.9609 3.3943 4.4387 6.4405 7.746 8.1812 9.0515 12.966 12.949 7.6312 6.7697 6.5235 6.1542 7.6312 6.8927 14.278 12.801 11.324 9.6006 11.693 9.1082 9.1083 6.1542 10.955 7.262 6.8927 4.5541 5.9608 4.44 6.0054 4.5258 6.0924 6.0924 5.048 6.8757 3.9165 7.572 2.1758 5.3091 2.1759 8.6164 0.69625 7.659 1.1315 6.0924s1.7407 8.3553 1.8277 8.7034c0.087 0.34814 1.5666 5.5702 1.5666 5.5702l2.7851 8.8775 1.8277 6.2664 2.7851 7.3109 5.4831 12.272 6.9627 14.796 4.0036 7.8331 6.4405 9.6608 5.135 8.0942"/>
  <path d="m888.01 568.61v-8.0942l0.87034-11.75 2.611-11.401 4.7869-11.837 5.135-10.183 8.5293-13.925 5.7443-8.7034 6.3535-7.746 6.5276-8.7904 11.924-13.925 9.8348-10.705 8.0071-9.4867 14.97-16.449 10.444-12.185 10.531-11.576 6.8757-8.6164 4.6998-7.1368 10.705-15.666 8.8774-15.492 4.0036-8.9645 3.7425-11.837 0.3481-12.098-3.6554-6.5275" style="paint-order:normal"/>
 </g>
 <g transform="translate(4.4151 -.29982)" fill="none" stroke="#5f6670" stroke-linecap="round" stroke-width="3.26">
  <path d="m1076.1 381.05h73.805l0.5222 46.302-73.805-0.17407z"/>
  <path d="m1002.3 391.16 3.1694 2.7078 3.5694 2.5848 6.4084 3.5664 4.6128 1.6536 5.7443 1.3925 6.0923 0.87034 7.572 0.43516 6.3535 0.17407 10.792-0.17407 15.666 0.17407 6.7887-0.087 71.117-0.68156 37.172-0.18463 26.648-0.0615 11.878-0.0615 8.616-0.18463 6.2773-0.30771 3.631-0.9847 3.1386-3.0771 2.0309-4.6772 1.2924-4.431 0.3077-4.8618-0.1231-2.7079" stroke-linejoin="round"/>
  <path d="m1112.9 360.77 0.1741 66.581" stroke-linejoin="round"/>
 </g>
 <g transform="translate(4.4151 -.29982)" fill="#f8fdbe" stroke="#f5de3b" stroke-width=".26458px">
  <path d="m253.86 783.31 2.5386 3.5387 3.4618-2.3386-2.4925-3.5694z"/>
  <path d="m235.47 765.76-0.30726 1.8882 2.0787 0.38218 0.3099-1.9429z"/>
  <path d="m226.69 769.94-2.7848 4.2464 2.1975 1.3799 2.6797-4.3339z"/>
  <path d="m188.98 789.45 2.3694 4.2695 2.2078-1.3847-2.5078-4.1541z"/>
  <path d="m186.46 791-3.9387-0.0308v-3.9849h4.0464z"/>
  <path d="m173.15 710.19-1.8877 2.3807 1.4526 1.1442 1.806-2.4587z"/>
  <path d="m171.3 716.2 1.0444 4.8086 1.5449-0.36992-0.9389-4.7666z"/>
  <path d="m175.46 711.89-0.73417-0.85733 2.0347-1.8963 0.82698 0.78082z"/>
  <path d="m159.52 632.66-0.92313 5.3542-5.0772-1.3232 1.1799-5.1568z"/>
  <path d="m199.75 668.77 1.5693 4.6157 1.077-0.32308-1.5539-4.5849z"/>
  <path d="m203.38 673.57-0.95391 1.6309 2.0924 1.6155 1.1539-1.8309z"/>
  <path d="m210.89 664.09-0.60003 0.92313 2.6463 1.554 0.72312-0.93853-2.7079-1.554z"/>
  <path d="m213.66 666.5-0.0769 2.4309 1.0154 0.0462 0.0308-2.4309z"/>
  <path d="m271.37 690.85-3.873 7.572 16.101 8.9645 3.786-7.3544z"/>
  <path d="m263.36 645.98-4.6998 7.5285 2.1323 1.3925-2.8721 4.9609 7.3761 4.7434 2.6981-4.5693 2.6763 1.5884 2.1759-3.8513-3.9165-2.4805 2.3499-4.3952z"/>
  <path d="m342.76 664.97-3.8464 2.5694 1.3078 2.0463 3.7387-2.6463z"/>
  <path d="m344.56 664.14 0.0308 2.354h4.5387v-2.3232z"/>
  <path d="m234.38 620.65 1.5231 4.7869 4.7434-1.4796-1.5231-4.6563z"/>
  <path d="m207.09 582.53 0.70773 2.8617 2.0309-0.52311 0.38464 1.3847 2.9079-0.76928-1.2308-4.0926z"/>
  <path d="m212.01 586.59 0.73851 4.1541 1.9386-0.40002-0.66158-4.1233z"/>
  <path d="m191.82 546.22 0.0435 2.5022 3.2855-0.0217-0.0653-2.6981-3.2855 0.1088z"/>
  <path d="m191.69 549.77 0.0217 3.3508h2.3934v-3.3073z"/>
  <path d="m272.65 494.97 0.0264 5.5425-2.7394 0.0308 0.0435 6.571 2.7363-0.0149 0.0202 4.0778 14.128 0.0277-0.11998-16.245z"/>
  <path d="m276.85 550.56 2.7132 1.8845-2.6824 3.8389-2.8617-2.0001z"/>
  <path d="m270.62 545.19 2.0771 1.8001 2.9094-2.8081-1.9709-1.823z"/>
  <path d="m274.74 546.85 1.9386-2.154 3.2617 2.4924-1.8001 2.154z"/>
  <path d="m261.63 552.11 2.7068 3.0835-2.076 1.686-2.6771-3.0925z"/>
  <path d="m264.83 555.74-3.0617 2.7694 1.8463 1.9078 3.1916-2.962z"/>
  <path d="m278.66 511.88 0.0308 2.6771 4.6157 0.0616-0.15386-2.7386z"/>
  <path d="m277.37 515.39h-3.1386v3.9387h3.2002z"/>
  <path d="m309.96 533.23 2.0001 1.7232-3.2925 3.1387-1.877-1.9078z"/>
  <path d="m312.76 535.63-1.8463 2.2155 3.4464 2.6771 1.754-2.4617z"/>
  <path d="m327.74 541.6 1.9694 1.9694-2.9848 2.954-2.0617-2.1232z"/>
  <path d="m327.59 539.79 2.954 3.2002 2.0617-2.0309-2.9848-2.954z"/>
  <path d="m338.11 531.23-2.0309 1.7232 2.9232 2.7078 2.0002-1.7847z"/>
  <path d="m319.5 496.25 16.247-0.21539-0.33848-13.324-4.2772 0.0616-0.0923-2.0001-6.9851 0.18467 0.0307 1.9078-4.708 0.2154z"/>
  <path d="m332.38 590.85 1.106 2.3011 3.4633-1.6484-1.0699-2.3807z"/>
  <path d="m304.08 617.52-0.76155 2.0888 2.0671 0.71803 0.71802-2.0453z"/>
  <path d="m402.92 699.46-2.9592 4.9174c1.214 0.57439 1.9744 0.88437 3.3774 1.7613l2.8455-4.8075z"/>
  <path d="m380.9 698.94 0.43516 3.7424 1.8821-0.21757-0.4243-3.6989z"/>
  <path d="m470.71 672.97-1.7847-0.12308-0.0615 1.5386h-2.5232l-0.0308 5.0772 4.431-0.2154z"/>
  <path d="m487.94 741.77 4.8618 0.0923-0.12309 5.6619-7.3312-0.0154 0.0385-5.0926 2.55-0.0185z"/>
  <path d="m493.48 741-0.12308 5.9388 3.4156 0.0127-0.018-3.231 1.3412-0.0127v-2.6096z"/>
  <path d="m497.46 747.75-0.0451 4.5106 2.3078-0.0308v-4.4146z"/>
  <path d="m503.02 799.22 0.0923 4.431 3.3848-0.12308-0.15385-4.4618z"/>
  <path d="m509.39 798.67 0.36925 4.3387 3.2617-0.24617-0.30771-4.4618z"/>
  <path d="m520.59 796.21-4.9849 0.80004 0.58465 5.5388 3.0771-0.46157-0.40002-2.6156 2.1232-0.30772z"/>
  <path d="m530.31 792.73 1.6309 0.7693-1.8155 3.4464-1.5386-0.92313z"/>
  <path d="m532.51 793.81 1.6309 0.7693-1.8155 3.4464-1.5386-0.92313z"/>
  <path d="m527.49 798.43 1.6309 0.7693-1.8155 3.4464-1.5386-0.92313z"/>
  <path d="m529.86 799.66 1.6309 0.7693-1.8155 3.4464-1.5386-0.92313z"/>
  <path d="m524.77 804.7-1.5386 3.0771 3.0463 1.477 1.4463-3.1387z"/>
  <path d="m522.93 808.48 3.2925 1.6616-0.92313 2.0617-3.3848-1.754z"/>
  <path d="m522.08 786.76 0.4308 1.4308 3.6464-1.1078-0.49234-1.4616z"/>
  <path d="m523.28 788.3 0.33848 1.1693-4.031 1.1847-0.29234-1.3232z"/>
  <path d="m542.83 789.01 3.0808-1.7885 2.3349 3.6925-2.0272 1.3539-0.97193-1.7014-1.2436 0.80906z"/>
  <path d="m542.03 778.14-1.9386 1.077-2.3694-4.9234 0.89236-0.55388 1.754 3.5694 1.0534-0.52247z"/>
  <path d="m481.63 825.22 0.0616 2.3386 2.1232-0.12309 0.0615-2.3386-2.1232 0.12308z"/>
  <path d="m399.01 765.65-0.0923 2.6156 3.7233 0.15386 0.12308-2.8002z"/>
  <path d="m353.18 710.23-1.4796 3.5466 4.0471 1.8712 2.0453-5.1785-1.7073-0.71957-0.65758 1.469z"/>
  <path d="m445.72 705.46-2.4523 5.4475 1.7152 0.82416 0.70637-1.6 2.2088 0.99869 1.7666-4.0524z"/>
  <path d="m315.8 388.8-4.2647 1.0444 1.0444 4.3517 4.1776-0.95737z"/>
  <path d="m338.82 391.41-0.0435 2.0018 2.0888 0.0435 0.0435-2.0453z"/>
  <path d="m364.89 412.99 1.3708 0.34814-0.50045 1.6956-1.349-0.34657z"/>
  <path d="m404.32 388.53 2.437 3.873 3.699-2.524-2.437-3.7424z"/>
  <path d="m439.43 401.78-0.0435 7.51 10.419 0.12262 0.0256 3.233 4.5921 0.0303v-6.422l-1.5306 0.0229 3e-3 -4.4458z"/>
  <path d="m457.06 412.64-2.292 0.11473 0.50779 9.4808 2.3491-0.25473z"/>
  <path d="m439.98 421.46-0.0769 4.2464 4.3387-0.1077 0.0154-4.1387z"/>
  <path d="m440.69 409.69-0.2 11.416 1.1231 0.0462 0.24617-11.416z"/>
  <path d="m459.32 415.54 1.077 3.2002 1.3847-0.46156-1.1693-3.231z"/>
  <path d="m458.37 413.72 1.3232 0.43079-0.83423 2.7076-1.289-0.52281z"/>
  <path d="m458.8 419.2 1.4773 0.12494-0.21575 5.6908-1.5078-0.0923z"/>
  <path d="m456.67 423.97 1.554-0.0154v1.1616l-1.5616-0.023z"/>
  <path d="m389.26 340.1-0.43516 2.6545 3.9165 0.69628 0.47076-2.7543z"/>
  <path d="m602.32 745.59-0.0435 5.5266 3.1332 0.0435 0.0435-5.5267z"/>
  <path d="m596.44 752.66 0.0435 2.5457 3.9818-0.1088-0.0653-2.5675z"/>
  <path d="m618.29 790.31 0.0653 1.5666 3.1985-0.087-0.087-1.6101z"/>
  <path d="m623.55 791.72 0.13055 3.1768 1.4578-0.0653-0.087-3.1115z"/>
  <path d="m623.82 796.31-4.5475 2.8068 0.8921 1.349 4.417-2.8721z"/>
  <path d="m689.92 729.97 10.966 0.21759-0.28288 13.773-1.7842 0.0218-0.0218 2.2846-5.4832-0.0653 0.0435-2.3499-3.786-0.17403z"/>
  <path d="m650.45 680.49 2.7851 5.309-0.87035 0.47871 0.80881 1.4897-5.5856 2.8721-0.83955-1.4079-1.4923 0.891-2.3855-4.5873 1.2875-0.64529-0.51738-0.95956z"/>
  <path d="m654.46 677.22-2.8031 1.3723 1.1802 2.3345-0.89319 0.47122 1.3363 2.3982 3.7728-2.0198z"/>
  <path d="m643.89 662.44-1.2001 1.1078 1.5693 1.6309 1.2902-1.0027z"/>
  <path d="m483.87 603.38-0.80881 1.6075-1.5846-0.82418-0.91384 1.8712 0.45055 0.27385-2.0607 4.2906 1.5512 0.84177-0.36352 0.72702 5.3834 2.6572 1.1134-1.9556-0.67826-0.43783 1.4361-2.8005 0.50945 0.26109 1.0826-2.0835-0.87035-0.42506 0.75253-1.6102z"/>
  <path d="m473.64 597.98 1.175 2.2194 3.1332-1.8277-1.1314-2.0888z"/>
  <path d="m479.15 596.11 2.6466 0.33494-0.19691 1.4079-2.6163-0.33275z"/>
  <path d="m485.51 595.49-1.2492 4.884 1.262 0.34814 1.3055-4.8739z"/>
  <path d="m483.96 599.19-0.47154 0.57025-1.9031-1.5775 0.45616-0.52221z"/>
  <path d="m489.86 602.56 0.89239 0.89234 1.8309-1.954-0.89234-0.86161z"/>
  <path d="m493.15 601.33 2.0155 2.2924-1.2462 1.2616-1.9386-2.2463z"/>
  <path d="m494.75 605.18 1.0308-0.15386 0.49234 3.1386-1.0924 0.12307z"/>
  <path d="m491.89 608.79 1.0616 0.56926-1.6924 3.5233-1.0462-0.55388z"/>
  <path d="m496.49 609.72-0.29234 0.78465 2.354 0.9693 0.24617-0.72313z"/>
  <path d="m500.66 619.59-0.0435 4.4823 4.2647 0.13054 0.17407-4.5693z"/>
  <path d="m471.08 622.54 3.8242 1.7433-1.5278 3.0231-3.8195-1.7311z"/>
  <path d="m484.17 619.36-2.1694 3.7233 2.0384 1.2324 2.1619-3.8325z"/>
  <path d="m485.14 618.9-2.2155-1.3232-0.76928 1.1386-0.98467-0.63083 1.5386-2.4771 3.2002 2.0309z"/>
  <path d="m476.49 615.93-4.4772 1.277 0.40003 1.3386 4.4157-1.5078z"/>
  <path d="m471.41 618.07-1.4462 2.6771 1.3385 0.66158 1.4155-2.5732z"/>
  <path d="m467.72 611.27 0.49234 4.8311 2.554-0.40002-0.70773-4.8311z"/>
  <path d="m470.43 604.67 3.2002 1.6924-0.83084 1.6616-3.3233-1.6001z"/>
  <path d="m471.56 602.42 3.2002 1.6924-0.83084 1.6616-3.3233-1.6001z"/>
  <path d="m472.99 600.27 2.9386 1.8617-0.95392 1.5386-3.0463-1.754z"/>
  <path d="m483.13 802.87-0.33912 1.8482 0.562 0.11004-0.0347 1.2558-0.40441-0.0259-1e-3 1.289 0.50044 0.0217-0.0101 1.207 0.52966 0.0473-0.0308 1.0189 1.2673 0.047 2e-3 1.037 2.2605-0.0127-0.0438-1.1686-0.9943-0.0217-0.0332-1.1699-0.71936-1e-3 -8e-3 0.38134-1.0099-0.0242 0.0512-1.8407-0.39167-4e-3 0.0154-0.80791 0.311 7e-3 -3e-3 -1.6064 1.4374-0.0369 0.0589-0.9266z"/>
  <path d="m486.55 793.13 2.554 0.58465 0.88863-2.7477-0.82335-0.23716 0.45037-1.2001-0.53927-0.19737 0.0889-1.0916 0.27321-0.83081 0.30771-0.74192 0.9539-0.70776 0.55388 0.58467 0.90324-0.81468 0.57003 0.62104 0.85973-0.7205-1.4406-1.5783-0.83082 0.67696-0.73851-0.67696-0.80004 0.89236-0.67697 0.76928-0.67696 1.2309-0.12308 1.1693v0.7385z"/>
  <path d="m491.53 788.85-0.0615 1.1232 1.1539 0.0461 0.0461-1.1308z"/>
  <path d="m494.92 435.45-4.1776 4.6563 6.31 5.7443 4.1559-4.8739z"/>
  <path d="m504.14 440.89-2.9666 3.3943 1.9222 1.5666 2.8721-3.4814z"/>
  <path d="m492.59 446.62-1.0226 1.8798-4.2647-2.4805 1.175-1.7842z"/>
  <path d="m574.88 454.81 1.6319 0.56572-2.611 6.1359-0.6745 2.5893-0.19583 1.7189-3.5249-0.80506 0.32636-1.3273 1.7189 0.34814 0.73977-3.0462z"/>
  <path d="m599.27 461.38 1.6536 0.65275-1.7842 5.135-1.6536-0.65274z"/>
  <path d="m608.15 463.08-5.6572-1.175 1.3055-5.0915 5.4614 0.97914z"/>
  <path d="m629.08 444.85c0.17407 0.30461 3.6119 4.6998 3.6119 4.6998l-1.349 0.95737 0.87034 1.4361-8.6164 5.7878-4.1776-6.1359z"/>
  <path d="m574.1 490.04 9.3142-3.0987 2.4572 7.2328-9.9219 3.4596z"/>
  <path d="m587.44 495.54 4.7651 1.5554-0.56571 1.5125-4.6346-1.6101z"/>
  <path d="m621.21 398.63c0 0.26109 1.1097 5.6572 1.1097 5.6572l-2.7416 0.47867-0.28288-1.6754-1.7407 0.19584-0.30463-1.8277 1.4796-0.30462-0.41342-2.1106z"/>
  <path d="m612.15 403.98-2.611 2.7851 2.524 2.0453 2.524-2.9156z"/>
  <path d="m631.1 419.63 1.9429 1.2413-2.3499 3.9165-2.0888-1.2185z"/>
  <path d="m655.69 400.8 2.3345-0.0361-0.087 4.6998-2.2629-0.087z"/>
  <path d="m664.81 399.07 2.3345 8e-3 0.0154 4.6049h-2.3222z"/>
  <path d="m656.91 407.33 1.8963-0.0281-2e-3 -1.3618 2.3934-0.0435 0.069 0.65539 4.7333-0.0255 0.0281 6.0282-1.1442 8e-3 -0.0308 1.9503h-6.1359l-0.0207-1.6818-1.8506 0.0717z"/>
  <path d="m692.44 395.32 7.6155 0.47867 0.52219-8.7687-7.4849-0.45693z"/>
  <path d="m664.78 378.24c0.18463-0.0308 3.6978-6.9378 3.6978-6.9378l-1.6368-0.80597 0.59739-1.077-4.1255-1.8373-2.4993 4.6232 0.95921 0.55762-1.6085 2.9232z"/>
  <path d="m673.64 367.47-0.30771 2.5848 9.016 0.95391 0.24617-2.5848z"/>
  <path d="m722.84 370.76 6.0271 0.0653-0.30461 8.834-5.9618-0.2176z"/>
  <path d="m727.19 362.69-0.0653 4.8304 4.5258 0.0217 0.0435-4.8522z"/>
  <path d="m707.55 429.6 4.0003 2.554 1.754-2.7386 3.8156 2.3386 0.40002-0.58465 3.6002 2.277-5.6004 9.8775-3.9079-2.7078-2.2771 3.9695-2.7386-1.9386-0.18462-2.154 0.89236-1.1693-3.9387-2.4924z"/>
  <path d="m674.19 440.15 5.2656 1.6536-2.0018 6.397-5.3526-1.5666z"/>
  <path d="m685.76 442.22c-1.7376-0.5473-3.4163-1.0815-5.6572-1.7407l-1.5448 4.7216 5.7225 1.6536z"/>
  <path d="m662.26 443.51 0.0616 3.2617 4.5541-0.12309-0.0308-3.231z"/>
  <path d="m673.6 468.12-2.1386-1.0154-0.24616 0.55388-4.1234-1.8463-0.32309 0.72312-1.3847-0.56926-2.0155 4.5541 1.5232 0.6308-0.53849 1.4309 5.8158 2.4309 0.56926-1.477 0.76928 0.38464z"/>
  <path d="m661.86 475.48-1.077 1.8155 1.8463 1.0462 0.98467-1.8463z"/>
  <path d="m660.44 473.35-0.98468 2.3386-1.4462-0.64619 1.0154-2.2463z"/>
  <path d="m639.18 473.97 1.2001 8e-3 0.0382 4.8234h-1.2075z"/>
  <path d="m621.81 511.43 3.329 0.0653-0.0653 4.2429-3.2855 0.0218z"/>
  <path d="m628.43 520.17 1.0444 2.2194 1.2185-0.69628 2.3499-0.34814-0.087-1.349-0.39164 0.0435-0.087-1.3055-2.611 0.43516z"/>
  <path d="m632.45 504.94h1.9376v3.7425h-1.9583z"/>
  <path d="m635.31 504.72 0.0435 3.6642 2.938 0.0558 0.0695-3.6862z"/>
  <path d="m619.68 500.11-0.34814 2.1758 2.9156 0.52221 0.39168-2.1758z"/>
  <path d="m623.42 502.29-0.34814 1.0879 2.4805 0.7833 0.36989-1.1532z"/>
  <path d="m606.24 521.39 2.524-0.47869 1.3925 8.6599-2.3934 0.65275z"/>
  <path d="m621.77 519.84 3.329 0.0653-0.0653 4.2429-3.2855 0.0218z"/>
  <path d="m848.55 538 0.0615 4.0002 4.2464-0.0615-0.0923-3.9387z"/>
  <path d="m847.47 537.33 0.0308 2.0617h-2.3078l0.0154-2.0617z"/>
  <path d="m844.27 540.65 0.30771 2.7694 2.0924-0.26154-0.24617-1.8309-0.9539 0.0923-0.10769-0.86159z"/>
  <path d="m845.31 534.1 1.2308 1.4155 2.6309-2.3232-1.4924-1.3078z"/>
  <path d="m850.21 533.79 0.0923 2.7078 0.95392-0.0615-0.0923-2.7078z"/>
  <path d="m1083.6 368.39-0.2462 4.6772-1.6001-0.0616-0.1846 2.8925-9.7237 0.2462v-7.6928z"/>
  <path d="m1093 371.78 0.062 5.8465 8.5544-0.0616-0.4308-5.2926z"/>
  <path d="m1101.7 367.84-0.062 5.9081 8.0005 0.12308v-5.9081z"/>
  <path d="m1097.3 384.83 0.01 6.6127 12.669-0.0585v-6.5466z"/>
  <path d="m1099.6 395.83-0.084 5.8316 8.6159-0.0308-0.031-5.8158z"/>
  <path d="m1083.4 395.45 5.0262 0.0435 0.044 1.0226 4.2864-0.0218 0.022 0.56573 2.1759 0.0435-0.022 4.0036h-11.576z"/>
  <path d="m1087.7 407.68-0.087 2.9592 2.8286 0.0435-0.065 2.3717 7.3544 0.0653 0.021 1.4361 5.0479 0.0435-0.043-6.9192z"/>
  <path d="m1105.3 407.25 0.043 7.0933 5.4397-0.0217 0.022-7.0715z"/>
  <path d="m1096.4 419.19-0.043 5.3743-3.8295-0.0435-0.022-5.3308z"/>
  <path d="m1088.1 420.78 2.8721 0.0218v3.6554l-2.8938-0.0435z"/>
  <path d="m1116.6 383.79v4.5693l11.128-4.4e-4v-4.5688z"/>
  <path d="m1116.4 393.8 15.579 2e-5 -0.044-7.7896 15.579 0.17407 0.095 14.476-31.209-0.0286z"/>
  <path d="m1116.4 407.26 5.0588 0.0217v0.51133l3.329-0.0217-0.011-0.63101 4.6128-0.0108-5e-4 6.9083-4.7759-0.0217-0.022-1.1641-3.0897-0.0109v1.2402l-5.1023-0.0108z"/>
  <path d="m1117 418.69 4.4886 0.0245-0.016 6.3137-4.4939-6e-3z"/>
  <path d="m1123.5 424.94 6.1168 0.064-0.019-3.9025-2.9772 0.0154-0.01 0.64879-3.1333-0.0255z"/>
  <path d="m1142.5 419.76 4.7216 0.0435-0.022 1.9264-1.0535-0.018-0.015 1.7776-2.7631-0.0396 0.016-1.5438-0.9497-0.0138z"/>
  <path d="m1142.2 414.49-0.054 2.97 4.4714 0.0109 0.011-2.97z"/>
  <path d="m1134.9 407.49 12.62-0.0217-0.043 6.3752-12.402-0.0217z"/>
  <path d="m1160.4 385.45 10.705-0.0435 0.043 4.7869 4.6128 0.0435 0.022 3.9166-3.6119-0.0653-5e-4 5.9183-8.7469 0.0218 0.1305-5.8748-3.1332-0.0218z"/>
  <path d="m1109.3 360.95 0.1305-13.055 14.361-0.087v13.012z"/>
  <path d="m273.07 743.02-1.6536 0.26112 0.65275 3.3943 1.7842-0.39164z"/>
 </g>
 <g transform="translate(4.4151 -.29982)">
  <path d="m925.17 348.5 6.9627 12.881 4.8739 11.14 7.833 17.407 6.4405 13.577 7.4849 13.229 5.3961 10.444 8.7034 6.4405 3.3073 6.0924 2.611 7.1368 1.9148 11.663 1.5666 17.929 0.87034 13.403-0.52221 10.096-0.87034 13.751-1.5666 8.8775-2.611 7.4849" fill="none" stroke="#384960" stroke-dasharray="3.99999986, 0.99999997" stroke-linejoin="round"/>
 </g>
 <g transform="translate(4.4151 -.29982)" fill="none" stroke="#e5cb00" stroke-linecap="round" stroke-linejoin="round" stroke-width=".5">
  <path d="m19.817 517.39 67.943-33.602 78.897-27.571 92.437-5.785 89.975-7.262 78.528-14.278 54.403-11.447 53.788-1.9694 57.234-3.3233 56.496-3.2002 49.849 9.6006 35.695 18.832 48.126 17.109 50.711 26.34 62.158 24.125 64.004 32.248 90.836 30.648"/>
  <path d="m1049.2 571.79-90.836-30.279-64.127-32.987-62.404-23.755-50.465-26.34-48.126-17.109-35.448-19.078-48.618-8.3698-56.742 3.5695-56.619 2.7078-54.28 2.2155-52.68 10.955-80.62 14.77-89.852 7.1389-91.698 5.5388-78.405 27.94-70.897 32.371"/>
 </g>
</svg>
